<?xml version="1.0" encoding="UTF-8"?>
<svg
  xmlns="http://www.w3.org/2000/svg"
  viewBox="0 0 1200 220"
  preserveAspectRatio="xMidYMid meet"
  role="img"
  aria-hidden="true"
  font-family="Inter, system-ui, -apple-system, BlinkMacSystemFont, 'Segoe UI', sans-serif"
>
  <title>AI Lead Rescue trust band</title>
  <desc>Five small geometric markers communicating AI Lead Rescue trust signals: 48-hour pilot setup, intake-first review, no card details on this site, no CRM rebuild required, and a USD invoice issued after intake review.</desc>

  <defs>
    <linearGradient id="lr-trust-bg" x1="0" y1="0" x2="1" y2="0">
      <stop offset="0%" stop-color="#0b1f33"/>
      <stop offset="50%" stop-color="#0f253c"/>
      <stop offset="100%" stop-color="#0b1f33"/>
    </linearGradient>
    <linearGradient id="lr-trust-rule" x1="0" y1="0" x2="1" y2="0">
      <stop offset="0%" stop-color="rgba(190, 158, 105, 0.05)"/>
      <stop offset="50%" stop-color="rgba(190, 158, 105, 0.40)"/>
      <stop offset="100%" stop-color="rgba(190, 158, 105, 0.05)"/>
    </linearGradient>
  </defs>

  <rect width="1200" height="220" fill="url(#lr-trust-bg)"/>
  <line x1="60" y1="80" x2="1140" y2="80" stroke="url(#lr-trust-rule)" stroke-width="1"/>

  <g stroke="rgba(125, 211, 252, 0.65)" stroke-width="1.4" fill="none" stroke-linecap="round" stroke-linejoin="round">
    <g transform="translate(160, 80)">
      <circle cx="0" cy="0" r="14"/>
      <line x1="0" y1="-7" x2="0" y2="0"/>
      <line x1="0" y1="0" x2="6" y2="3"/>
    </g>

    <g transform="translate(380, 80)">
      <rect x="-13" y="-12" width="26" height="22" rx="2"/>
      <line x1="-7" y1="-2" x2="7" y2="-2"/>
      <line x1="-7" y1="4" x2="3" y2="4"/>
    </g>

    <g transform="translate(600, 80)">
      <rect x="-14" y="-9" width="28" height="18" rx="2"/>
      <line x1="-14" y1="-3" x2="14" y2="-3"/>
      <line x1="-7" y1="9" x2="-7" y2="14"/>
      <path d="M -16,3 L -10,-3 L -4,3" />
    </g>

    <g transform="translate(820, 80)">
      <path d="M -12,-8 L -12,8 L 12,8 L 12,-8 Z"/>
      <line x1="-12" y1="0" x2="12" y2="0"/>
      <circle cx="-6" cy="-4" r="0.8" fill="rgba(125, 211, 252, 0.65)"/>
      <circle cx="-6" cy="4" r="0.8" fill="rgba(125, 211, 252, 0.65)"/>
    </g>

    <g transform="translate(1040, 80)">
      <circle cx="0" cy="0" r="14"/>
      <line x1="-9" y1="0" x2="9" y2="0"/>
      <line x1="0" y1="-9" x2="0" y2="9"/>
    </g>
  </g>

  <g fill="rgba(190, 158, 105, 0.65)">
    <circle cx="270" cy="80" r="1.4"/>
    <circle cx="490" cy="80" r="1.4"/>
    <circle cx="710" cy="80" r="1.4"/>
    <circle cx="930" cy="80" r="1.4"/>
  </g>

  <g font-size="12" font-weight="700" fill="#c9d8e8" text-anchor="middle" letter-spacing="0.10em">
    <text x="160" y="130">48-HOUR</text>
    <text x="160" y="148">PILOT SETUP</text>

    <text x="380" y="130">INTAKE-FIRST</text>
    <text x="380" y="148">REVIEW</text>

    <text x="600" y="130">NO CARD DETAILS</text>
    <text x="600" y="148">ON THIS SITE</text>

    <text x="820" y="130">NO CRM</text>
    <text x="820" y="148">REBUILD NEEDED</text>

    <text x="1040" y="130">USD INVOICE</text>
    <text x="1040" y="148">AFTER INTAKE</text>
  </g>

  <text x="600" y="190" text-anchor="middle" font-size="11" fill="#7c8da3" font-style="italic">
    No revenue guarantees | no outcomes claimed | operator-logged follow-up only.
  </text>
</svg>
