<svg xmlns="http://www.w3.org/2000/svg" viewBox="0 0 1280 640" width="1280" height="640" font-family="-apple-system, BlinkMacSystemFont, 'Segoe UI', Inter, system-ui, sans-serif">
  <defs>
    <linearGradient id="bg" x1="0" y1="0" x2="1" y2="1">
      <stop offset="0%" stop-color="#0B1220"/>
      <stop offset="60%" stop-color="#0F172A"/>
      <stop offset="100%" stop-color="#1E293B"/>
    </linearGradient>
    <linearGradient id="accent" x1="0" y1="0" x2="1" y2="0">
      <stop offset="0%" stop-color="#D97757"/>
      <stop offset="100%" stop-color="#F59E0B"/>
    </linearGradient>
    <linearGradient id="glow" x1="0" y1="0" x2="0" y2="1">
      <stop offset="0%" stop-color="#7C3AED" stop-opacity="0.35"/>
      <stop offset="100%" stop-color="#7C3AED" stop-opacity="0"/>
    </linearGradient>
    <filter id="soft" x="-20%" y="-20%" width="140%" height="140%">
      <feGaussianBlur stdDeviation="40"/>
    </filter>
  </defs>

  <!-- Background -->
  <rect width="1280" height="640" fill="url(#bg)"/>
  <circle cx="1080" cy="120" r="220" fill="#7C3AED" opacity="0.22" filter="url(#soft)"/>
  <circle cx="180" cy="540" r="200" fill="#D97757" opacity="0.18" filter="url(#soft)"/>

  <!-- Grid texture -->
  <g stroke="#1F2937" stroke-width="1" opacity="0.35">
    <line x1="0" y1="160" x2="1280" y2="160"/>
    <line x1="0" y1="320" x2="1280" y2="320"/>
    <line x1="0" y1="480" x2="1280" y2="480"/>
    <line x1="320" y1="0" x2="320" y2="640"/>
    <line x1="640" y1="0" x2="640" y2="640"/>
    <line x1="960" y1="0" x2="960" y2="640"/>
  </g>

  <!-- Logo mark -->
  <g transform="translate(72,72)">
    <circle cx="32" cy="32" r="32" fill="url(#accent)"/>
    <path d="M20 44 L32 18 L44 44 M24 36 H40" stroke="#0F172A" stroke-width="4" stroke-linecap="round" stroke-linejoin="round" fill="none"/>
  </g>
  <text x="152" y="118" fill="#E5E7EB" font-size="32" font-weight="700" letter-spacing="-0.5">Antigravity</text>

  <!-- Headline -->
  <text x="72" y="240" fill="#FFFFFF" font-size="72" font-weight="800" letter-spacing="-2.5">ChatGPT for your</text>
  <text x="72" y="324" font-size="72" font-weight="800" letter-spacing="-2.5">
    <tspan fill="#FFFFFF">codebase</tspan>
    <tspan fill="#94A3B8" font-weight="500">, in any IDE.</tspan>
  </text>

  <!-- Sub-headline -->
  <text x="72" y="386" fill="#CBD5E1" font-size="26" font-weight="400">
    Multi-agent knowledge engine. Grounded answers with file paths and line numbers.
  </text>

  <!-- IDE pills -->
  <g font-size="20" font-weight="600">
    <g transform="translate(72,432)">
      <rect width="138" height="46" rx="23" fill="#1E293B" stroke="#334155"/>
      <text x="69" y="30" fill="#D97757" text-anchor="middle">Claude Code</text>
    </g>
    <g transform="translate(222,432)">
      <rect width="84" height="46" rx="23" fill="#1E293B" stroke="#334155"/>
      <text x="42" y="30" fill="#E5E7EB" text-anchor="middle">Cursor</text>
    </g>
    <g transform="translate(318,432)">
      <rect width="84" height="46" rx="23" fill="#1E293B" stroke="#334155"/>
      <text x="42" y="30" fill="#A78BFA" text-anchor="middle">Codex</text>
    </g>
    <g transform="translate(414,432)">
      <rect width="108" height="46" rx="23" fill="#1E293B" stroke="#334155"/>
      <text x="54" y="30" fill="#22D3EE" text-anchor="middle">Windsurf</text>
    </g>
    <g transform="translate(534,432)">
      <rect width="124" height="46" rx="23" fill="#1E293B" stroke="#334155"/>
      <text x="62" y="30" fill="#60A5FA" text-anchor="middle">Gemini CLI</text>
    </g>
    <g transform="translate(670,432)">
      <rect width="116" height="46" rx="23" fill="#1E293B" stroke="#334155"/>
      <text x="58" y="30" fill="#94A3B8" text-anchor="middle">+ 4 more</text>
    </g>
  </g>

  <!-- Right-side code card -->
  <g transform="translate(820,150)">
    <rect width="400" height="340" rx="20" fill="#020617" stroke="#334155"/>
    <g transform="translate(20,20)">
      <circle cx="8" cy="8" r="6" fill="#EF4444"/>
      <circle cx="32" cy="8" r="6" fill="#F59E0B"/>
      <circle cx="56" cy="8" r="6" fill="#22C55E"/>
    </g>
    <g font-family="ui-monospace, SFMono-Regular, 'JetBrains Mono', Consolas, monospace" font-size="17">
      <text x="20" y="74" fill="#94A3B8">$</text>
      <text x="40" y="74" fill="#E5E7EB">ag-ask </text>
      <text x="40" y="100" fill="#22D3EE">"How does auth work?"</text>

      <text x="20" y="146" fill="#6B7280">▸ Routing to ModuleAgent...</text>
      <text x="20" y="172" fill="#6B7280">▸ Reading agents/auth.md</text>

      <text x="20" y="218" fill="#22C55E">✓ Answer (4 sources):</text>
      <text x="20" y="246" fill="#E5E7EB">JWT issued by issue_token()</text>
      <text x="20" y="270" fill="#94A3B8">  src/auth/jwt.py:42</text>
      <text x="20" y="298" fill="#94A3B8">  src/auth/middleware.py:88</text>
    </g>
  </g>

  <!-- Stats bar -->
  <g transform="translate(72,536)">
    <rect width="710" height="68" rx="14" fill="#0B1220" stroke="#334155"/>
    <g font-size="22" font-weight="700">
      <text x="32" y="42" fill="#22C55E">99%</text>
      <text x="84" y="42" fill="#CBD5E1" font-weight="500">factual</text>
      <line x1="180" y1="20" x2="180" y2="48" stroke="#334155"/>

      <text x="204" y="42" fill="#F59E0B">2.1×</text>
      <text x="254" y="42" fill="#CBD5E1" font-weight="500">faster than Codex CLI</text>
      <line x1="510" y1="20" x2="510" y2="48" stroke="#334155"/>

      <text x="534" y="42" fill="#A78BFA">36 Q × 3 repos</text>
      <text x="668" y="42" fill="#CBD5E1" font-weight="500">benchmark</text>
    </g>
  </g>

  <!-- Github handle bottom-right -->
  <text x="1208" y="600" fill="#64748B" font-size="18" text-anchor="end" font-weight="500">
    github.com/study8677/repobrain
  </text>
</svg>
